:SAMPLES-PER-SECOND 30
:FULLY-SPECIFIED
:DEGREES
559
root  -1.66133 38.1808 13.9825 -177.76 46.3209 -178.333
RightUpLeg  -28.5374 32.2005 -6.96094
RightLeg  28.3562 16.2666 9.11087
RightFoot  -4.11212 -0.31483 4.53704
RightToes  -5.8209e-011 0 -3.6325e-017
Spine  31.3412 -4.65968 -35.1116
Spine1  0.19405 -15.2204 3.19887
HEad  -0.926726 59.3916 -12.4188
LeftShoulder1  3.10923 -13.6007 -10.9481
LeftArm  106.445 -56.8039 -175.919
LeftForeArm  71.7788 4.80079 -11.0232
LeftHand  -0.246645 0.021 5.37786
RightShoulder  5.32255 12.5421 27.1319
RightArm  -55.6111 37.7302 31.1335
RightForeArm  121.699 80.4472 103.983
RightHand  -0.24729 -0.0210522 -5.37781
LeftUpLeg  -4.47731 41.6694 15.9537
LeftLeg  32.2444 7.70268 5.58011
LeftFoot  -15.7699 -0.516539 -15.7066
LeftToes  -7.45818e-011 -3.37383e-011 1.08613e-011
560
root  -1.82747 38.1863 14.0095 -178.143 44.8303 -178.842
RightUpLeg  -28.5268 31.604 -7.68789
RightLeg  28.3097 15.5596 8.7047
RightFoot  -4.29438 -0.328808 4.86103
RightToes  -5.8209e-011 0 -3.6325e-017
Spine  31.6807 -3.98487 -34.0634
Spine1  1.176 -14.3809 2.8894
HEad  -1.1658 58.599 -12.8081
LeftShoulder1  3.3085 -14.0196 -11.7239
LeftArm  103.145 -57.8612 -172.79
LeftForeArm  73.106 6.10559 -10.8552
LeftHand  -0.246645 0.021 5.37786
RightShoulder  5.63038 13.0195 28.0621
RightArm  -53.6345 36.8802 32.5509
RightForeArm  111.831 80.648 94.973
RightHand  -0.24729 -0.0210522 -5.37781
LeftUpLeg  -5.37806 41.1445 14.9637
LeftLeg  32.3106 7.01751 5.1344
LeftFoot  -15.7695 -0.494825 -15.1559
LeftToes  -7.45818e-011 -3.37383e-011 1.08613e-011
561
root  -1.99235 38.2011 14.0437 -178.583 43.2507 -179.359
RightUpLeg  -28.3516 30.9311 -8.37506
RightLeg  28.1883 14.8651 8.27967
RightFoot  -4.44279 -0.343493 5.19217
RightToes  -5.8209e-011 0 -3.6325e-017
Spine  32.0993 -3.31511 -32.8837
Spine1  2.24619 -13.5159 2.54818
HEad  -1.85765 57.6218 -13.4605
LeftShoulder1  3.52461 -14.4129 -12.5979
LeftArm  99.3517 -59.0041 -169.177
LeftForeArm  74.6228 6.31813 -10.6937
LeftHand  -0.246645 0.021 5.37786
RightShoulder  5.96207 13.517 29.0347
RightArm  -51.555 36.0075 33.9989
RightForeArm  100.513 80.5967 84.5541
RightHand  -0.24729 -0.0210522 -5.37781
LeftUpLeg  -6.16523 40.5497 13.9872
LeftLeg  32.2813 6.36922 4.69413
LeftFoot  -15.7016 -0.463372 -14.5662
LeftToes  -7.45818e-011 -3.37383e-011 1.08613e-011
562
root  -2.14991 38.2179 14.0889 -178.966 41.5108 -179.88
RightUpLeg  -28.1671 30.1592 -9.08636
RightLeg  28.055 14.1163 7.82259
RightFoot  -4.58534 -0.356896 5.51203
RightToes  -5.8209e-011 0 -3.6325e-017
Spine  32.5755 -2.69043 -31.5812
Spine1  3.2978 -12.6619 2.2621
HEad  -2.30946 56.2459 -13.896
LeftShoulder1  3.68202 -14.6586 -13.2582
LeftArm  95.1349 -60.1313 -165.176
LeftForeArm  75.2174 6.22052 -10.4373
LeftHand  -0.246645 0.021 5.37786
RightShoulder  6.33091 14.0125 30.1684
RightArm  -49.467 35.0886 35.2978
RightForeArm  89.0401 80.2222 73.9306
RightHand  -0.24729 -0.0210522 -5.37781
LeftUpLeg  -7.02739 39.8778 12.9439
LeftLeg  32.2109 5.67838 4.21887
LeftFoot  -15.5821 -0.426862 -13.9824
LeftToes  -7.45818e-011 -3.37383e-011 1.08613e-011
563
root  -2.29559 38.2346 14.1436 -179.229 39.5724 179.634
RightUpLeg  -28.0035 29.2768 -9.81438
RightLeg  27.9141 13.2855 7.32029
RightFoot  -4.74367 -0.369532 5.84459
RightToes  -5.8209e-011 0 -3.6325e-017
Spine  33.1064 -2.07479 -30.1777
Spine1  4.26905 -11.8245 2.22683
HEad  -2.26376 54.3267 -13.9789
LeftShoulder1  3.81256 -14.8217 -13.8414
LeftArm  90.7517 -61.1417 -160.85
LeftForeArm  75.0202 6.19934 -10.2494
LeftHand  -0.246645 0.021 5.37786
RightShoulder  6.66817 14.4171 31.2453
RightArm  -47.3793 34.1306 36.5949
RightForeArm  78.4801 79.5286 64.0786
RightHand  -0.24729 -0.0210522 -5.37781
LeftUpLeg  -8.02766 39.0928 11.8357
LeftLeg  32.1262 4.91037 3.69107
LeftFoot  -15.398 -0.385026 -13.4153
LeftToes  -7.45818e-011 -3.37383e-011 1.08613e-011
